<svg width="134" height="24" viewBox="0 0 134 24" fill="none" xmlns="http://www.w3.org/2000/svg">
<g clip-path="url(#clip0_12_438)">
<path d="M115.376 15.7971H109.974L112.639 9.58621L115.376 15.7971ZM118.717 23.9313H124.624V23.0536L113.958 0.00335694H111.359L100.73 23.0588V23.9365H106.638L108.021 20.9656H117.338L118.717 23.9313ZM92.3646 5.39992V23.9142H98.3389V5.39992H104.118V0.00335694H86.5584V5.40507L92.3646 5.39992ZM76.4681 11.2285H72.1481V5.32105C73.5658 5.32105 75.0503 5.28677 76.4681 5.32105C79.9103 5.35534 79.7423 11.2285 76.4681 11.2285ZM81.4635 15.1713C87.4378 11.1205 85.7492 0.0187828 76.4681 -0.0155029H66.1052V23.9228H72.1463V16.5891H75.2852L79.3361 23.9228H86.0869V23.0451L81.4635 15.1713ZM63.4206 0.00335694H48.6778V23.9279H63.7327V18.5605H54.6863V14.4033H62.7195V9.03762H54.6863V5.6965H63.4292L63.4206 0.00335694ZM23.2121 12.1285C23.2464 20.1616 29.3646 23.9759 35.3715 23.9416C40.4012 23.9416 45.6572 21.5416 46.5366 14.8559H40.5949C40.3085 15.9872 39.621 16.9759 38.6601 17.6381C37.6993 18.3003 36.5306 18.5909 35.3715 18.4559C34.5609 18.4504 33.76 18.2798 33.0175 17.9546C32.2751 17.6293 31.6067 17.1562 31.0531 16.5641C30.4995 15.9721 30.0723 15.2734 29.7977 14.5108C29.523 13.7482 29.4066 12.9376 29.4555 12.1285C29.4555 8.21307 31.7852 5.54562 35.3286 5.54562C36.4572 5.44813 37.585 5.7399 38.5247 6.37239C39.4644 7.00489 40.1593 7.93997 40.4938 9.02219H46.4338C45.5235 2.71019 40.2229 0.0444772 35.3286 0.0444772C33.7239 -0.0161091 32.1239 0.254763 30.6285 0.840149C29.1331 1.42554 27.7744 2.31289 26.6373 3.44681C25.5001 4.58074 24.6089 5.93688 24.0193 7.43061C23.4297 8.92434 23.1543 10.5236 23.2104 12.1285" fill="#214D74"/>
<path d="M15.4841 15.797H10.0824L12.7498 9.58614L15.4841 15.797ZM18.8253 23.9313H24.7327V23.0536L14.0664 0.00158691H11.4675L0.838989 23.0553V23.933H6.74639L8.12983 20.9621H17.447L18.8253 23.9313Z" fill="#214D74"/>
<path d="M17.411 20.9589L18.8099 24H25.1784L23.7659 20.9589H17.411Z" fill="#214D74"/>
<path d="M132.5 0H127.088V18.2743H132.5V0Z" fill="#F79028"/>
<path d="M132.5 20.9589H127.088V23.9383H132.5V20.9589Z" fill="#F79028"/>
</g>
<defs>
<clipPath id="clip0_12_438">
<rect width="133.333" height="24" fill="white"/>
</clipPath>
</defs>
</svg>
